<svg width="171" height="65" viewBox="0 0 171 65" fill="none" xmlns="http://www.w3.org/2000/svg">
<path d="M39.1924 48.2395L40.8262 53.2297L44.2031 48.2395H45.7412L41.2773 54.5422L40.6416 58.1926H39.3564L40.0195 54.3987L37.791 48.2395H39.1924ZM44.9286 54.6174L44.9491 54.4602C45.0037 53.9635 45.1268 53.4849 45.3182 53.0247C45.5142 52.5644 45.7717 52.1542 46.0907 51.7942C46.4097 51.4342 46.7879 51.1516 47.2254 50.9465C47.6629 50.7415 48.1506 50.6458 48.6883 50.6594C49.2079 50.6685 49.6522 50.7802 50.0213 50.9944C50.395 51.2086 50.6958 51.4934 50.9237 51.8489C51.1561 52.1998 51.3179 52.5963 51.409 53.0383C51.5002 53.4804 51.523 53.9361 51.4774 54.4055L51.4637 54.5627C51.4045 55.0595 51.2769 55.5357 51.0809 55.9915C50.8849 56.4472 50.6252 56.8528 50.3016 57.2083C49.9826 57.5637 49.6043 57.844 49.1668 58.0491C48.7293 58.2496 48.244 58.343 47.7108 58.3293C47.1958 58.3202 46.7515 58.2109 46.3778 58.0012C46.0086 57.787 45.7101 57.5045 45.4823 57.1536C45.2544 56.8027 45.0949 56.4084 45.0037 55.9709C44.9126 55.5334 44.8875 55.0823 44.9286 54.6174ZM46.1795 54.4602L46.1659 54.6243C46.134 54.9114 46.1317 55.2099 46.159 55.5198C46.1909 55.8297 46.2638 56.1168 46.3778 56.3811C46.4963 56.6454 46.6672 56.8619 46.8905 57.0305C47.1138 57.1991 47.4032 57.288 47.7586 57.2971C48.1369 57.3062 48.4696 57.2333 48.7567 57.0784C49.0438 56.9189 49.2876 56.7047 49.4881 56.4358C49.6932 56.1669 49.855 55.8684 49.9735 55.5403C50.0965 55.2122 50.1786 54.8863 50.2196 54.5627L50.2332 54.4055C50.2651 54.1184 50.2651 53.8199 50.2332 53.51C50.2059 53.1956 50.133 52.9039 50.0145 52.635C49.9006 52.3616 49.7319 52.1405 49.5086 51.9719C49.2853 51.7987 48.9959 51.7076 48.6405 51.6985C48.2622 51.6848 47.9273 51.76 47.6356 51.9241C47.3485 52.0836 47.1047 52.3 46.9041 52.5735C46.7036 52.8469 46.5418 53.15 46.4188 53.4827C46.3003 53.8108 46.2205 54.1366 46.1795 54.4602ZM57.0973 56.4153L58.068 50.7961H59.3122L58.027 58.1926H56.8444L57.0973 56.4153ZM57.5622 54.925L58.068 54.9045C58.0088 55.3694 57.904 55.8114 57.7536 56.2307C57.6032 56.6454 57.3981 57.0146 57.1384 57.3381C56.8832 57.6571 56.5641 57.9078 56.1813 58.0901C55.8031 58.2678 55.3542 58.3499 54.8346 58.3362C54.429 58.3225 54.0895 58.2405 53.8161 58.0901C53.5472 57.9397 53.3353 57.7369 53.1804 57.4817C53.0254 57.2265 52.9229 56.9348 52.8727 56.6067C52.8226 56.2786 52.8158 55.9322 52.8522 55.5676L53.652 50.7961H54.8893L54.0895 55.5881C54.0713 55.7887 54.069 55.9869 54.0827 56.1829C54.0964 56.3743 54.1374 56.5497 54.2057 56.7092C54.2741 56.8687 54.3789 56.9986 54.5202 57.0989C54.666 57.1946 54.8574 57.247 55.0944 57.2561C55.5866 57.2743 56.0036 57.1832 56.3454 56.9827C56.6872 56.7776 56.9583 56.495 57.1589 56.135C57.3594 55.775 57.4938 55.3717 57.5622 54.925ZM62.232 52.0129L61.1587 58.1926H59.9214L61.2066 50.7961H62.4097L62.232 52.0129ZM64.6314 50.7346L64.5152 51.9241C64.4195 51.9058 64.3215 51.8899 64.2212 51.8762C64.1255 51.8625 64.0298 51.8557 63.9341 51.8557C63.6379 51.8512 63.3713 51.8967 63.1343 51.9924C62.9019 52.0836 62.6945 52.2135 62.5122 52.3821C62.3345 52.5507 62.1818 52.7489 62.0542 52.9768C61.9312 53.2047 61.8332 53.4508 61.7603 53.7151L61.3706 53.9202C61.4208 53.551 61.5028 53.1728 61.6167 52.7854C61.7352 52.398 61.897 52.0403 62.1021 51.7122C62.3117 51.384 62.5737 51.1197 62.8882 50.9192C63.2072 50.7187 63.59 50.6252 64.0366 50.6389C64.1369 50.6389 64.2349 50.648 64.3306 50.6663C64.4308 50.6845 64.5311 50.7073 64.6314 50.7346ZM70.4846 56.9895L73.3967 50.7961H74.7023L70.9631 58.1926H70.0949L70.4846 56.9895ZM69.801 50.7961L70.8537 57.1467L70.8195 58.1926H70.0266L68.5773 50.7961H69.801ZM74.8672 54.6174L74.8877 54.4602C74.9424 53.9635 75.0655 53.4849 75.2569 53.0247C75.4528 52.5644 75.7103 52.1542 76.0293 51.7942C76.3483 51.4342 76.7266 51.1516 77.1641 50.9465C77.6016 50.7415 78.0892 50.6458 78.627 50.6594C79.1465 50.6685 79.5909 50.7802 79.96 50.9944C80.3337 51.2086 80.6345 51.4934 80.8623 51.8489C81.0948 52.1998 81.2565 52.5963 81.3477 53.0383C81.4388 53.4804 81.4616 53.9361 81.4161 54.4055L81.4024 54.5627C81.3431 55.0595 81.2155 55.5357 81.0196 55.9915C80.8236 56.4472 80.5638 56.8528 80.2403 57.2083C79.9213 57.5637 79.543 57.844 79.1055 58.0491C78.668 58.2496 78.1827 58.343 77.6495 58.3293C77.1345 58.3202 76.6901 58.2109 76.3164 58.0012C75.9473 57.787 75.6488 57.5045 75.4209 57.1536C75.1931 56.8027 75.0336 56.4084 74.9424 55.9709C74.8513 55.5334 74.8262 55.0823 74.8672 54.6174ZM76.1182 54.4602L76.1045 54.6243C76.0726 54.9114 76.0704 55.2099 76.0977 55.5198C76.1296 55.8297 76.2025 56.1168 76.3164 56.3811C76.4349 56.6454 76.6058 56.8619 76.8291 57.0305C77.0524 57.1991 77.3418 57.288 77.6973 57.2971C78.0756 57.3062 78.4082 57.2333 78.6954 57.0784C78.9825 56.9189 79.2263 56.7047 79.4268 56.4358C79.6319 56.1669 79.7937 55.8684 79.9121 55.5403C80.0352 55.2122 80.1172 54.8863 80.1582 54.5627L80.1719 54.4055C80.2038 54.1184 80.2038 53.8199 80.1719 53.51C80.1446 53.1956 80.0717 52.9039 79.9532 52.635C79.8392 52.3616 79.6706 52.1405 79.4473 51.9719C79.224 51.7987 78.9346 51.7076 78.5791 51.6985C78.2009 51.6848 77.8659 51.76 77.5743 51.9241C77.2871 52.0836 77.0433 52.3 76.8428 52.5735C76.6423 52.8469 76.4805 53.15 76.3575 53.4827C76.239 53.8108 76.1592 54.1366 76.1182 54.4602ZM86.6327 50.7961L86.4618 51.7668H82.5721L82.743 50.7961H86.6327ZM84.37 48.9983H85.6005L84.3495 56.3743C84.3358 56.5338 84.3404 56.6773 84.3632 56.8049C84.3859 56.9325 84.4406 57.0351 84.5272 57.1125C84.6138 57.1855 84.746 57.2242 84.9237 57.2288C85.024 57.2288 85.122 57.2219 85.2177 57.2083C85.3179 57.19 85.4182 57.1741 85.5184 57.1604L85.4296 58.1995C85.2837 58.2405 85.1333 58.2701 84.9784 58.2883C84.828 58.3111 84.6776 58.3202 84.5272 58.3157C84.149 58.3111 83.8527 58.2154 83.6386 58.0286C83.4244 57.8417 83.2785 57.6002 83.2011 57.304C83.1236 57.0077 83.1008 56.691 83.1327 56.3538L84.37 48.9983ZM89.9421 58.3293C89.4362 58.3202 88.9965 58.22 88.6228 58.0286C88.2536 57.8326 87.9506 57.5706 87.7136 57.2424C87.4812 56.9097 87.3148 56.5315 87.2146 56.1077C87.1143 55.6838 87.0847 55.2395 87.1257 54.7747L87.153 54.4807C87.1986 54.0068 87.3148 53.5419 87.5017 53.0862C87.6885 52.6259 87.9369 52.2112 88.2468 51.842C88.5612 51.4729 88.9304 51.1812 89.3542 50.967C89.7826 50.7483 90.2566 50.6458 90.7761 50.6594C91.2911 50.6685 91.7195 50.7779 92.0612 50.9875C92.403 51.1972 92.6696 51.4752 92.8611 51.8215C93.057 52.1633 93.1846 52.5484 93.2439 52.9768C93.3031 53.4006 93.3077 53.8359 93.2575 54.2825L93.1823 54.8499H87.8161L87.9802 53.8176L92.0749 53.8245L92.0954 53.7151C92.141 53.387 92.1228 53.0702 92.0407 52.7649C91.9587 52.4596 91.8083 52.2089 91.5896 52.0129C91.3754 51.8124 91.086 51.7076 90.7214 51.6985C90.3431 51.6848 90.015 51.7623 89.737 51.9309C89.459 52.095 89.2266 52.3183 89.0398 52.6008C88.8529 52.8788 88.7048 53.1842 88.5954 53.5168C88.4906 53.845 88.4177 54.1663 88.3767 54.4807L88.3493 54.7678C88.322 55.0595 88.3311 55.3534 88.3767 55.6497C88.4223 55.9459 88.5088 56.217 88.6364 56.4631C88.7686 56.7047 88.9509 56.9029 89.1833 57.0579C89.4157 57.2083 89.7029 57.288 90.0446 57.2971C90.4594 57.3062 90.8308 57.2174 91.1589 57.0305C91.4916 56.8391 91.7946 56.5976 92.0681 56.3059L92.7722 56.9075C92.558 57.2219 92.3028 57.4862 92.0066 57.7004C91.7103 57.9146 91.3868 58.0741 91.0359 58.179C90.6849 58.2838 90.3204 58.3339 89.9421 58.3293ZM95.439 56.6887L95.275 57.7004C95.1975 58.1972 95.022 58.6597 94.7486 59.0881C94.4752 59.5165 94.1402 59.8811 93.7437 60.1819L93.0601 59.6692C93.2196 59.4732 93.3655 59.2727 93.4976 59.0676C93.6298 58.8671 93.7414 58.6552 93.8326 58.4319C93.9283 58.2086 94.0012 57.9739 94.0513 57.7278L94.2291 56.6887H95.439ZM102.406 57.3518L105.524 50.7961H106.891L102.55 59.3411C102.436 59.5826 102.302 59.815 102.147 60.0383C101.996 60.2616 101.823 60.4622 101.627 60.6399C101.436 60.8176 101.219 60.9566 100.978 61.0569C100.736 61.1571 100.47 61.2073 100.178 61.2073C100.055 61.2027 99.9319 61.189 99.8088 61.1663C99.6812 61.1435 99.5582 61.1184 99.4397 61.0911L99.5149 60.052C99.5696 60.0611 99.6243 60.068 99.6789 60.0725C99.7336 60.0816 99.786 60.0885 99.8362 60.093C100.142 60.1021 100.404 60.0588 100.622 59.9631C100.846 59.8674 101.037 59.7262 101.197 59.5393C101.361 59.3525 101.506 59.1292 101.634 58.8694L102.406 57.3518ZM102.065 50.7961L102.947 56.6067L103.029 57.9124L102.106 58.3635L100.766 50.7961H102.065ZM106.919 54.6174L106.94 54.4602C106.994 53.9635 107.117 53.4849 107.309 53.0247C107.505 52.5644 107.762 52.1542 108.081 51.7942C108.4 51.4342 108.778 51.1516 109.216 50.9465C109.653 50.7415 110.141 50.6458 110.679 50.6594C111.198 50.6685 111.643 50.7802 112.012 50.9944C112.385 51.2086 112.686 51.4934 112.914 51.8489C113.147 52.1998 113.308 52.5963 113.399 53.0383C113.491 53.4804 113.513 53.9361 113.468 54.4055L113.454 54.5627C113.395 55.0595 113.267 55.5357 113.071 55.9915C112.875 56.4472 112.616 56.8528 112.292 57.2083C111.973 57.5637 111.595 57.844 111.157 58.0491C110.72 58.2496 110.234 58.343 109.701 58.3293C109.186 58.3202 108.742 58.2109 108.368 58.0012C107.999 57.787 107.701 57.5045 107.473 57.1536C107.245 56.8027 107.085 56.4084 106.994 55.9709C106.903 55.5334 106.878 55.0823 106.919 54.6174ZM108.17 54.4602L108.156 54.6243C108.124 54.9114 108.122 55.2099 108.149 55.5198C108.181 55.8297 108.254 56.1168 108.368 56.3811C108.487 56.6454 108.658 56.8619 108.881 57.0305C109.104 57.1991 109.394 57.288 109.749 57.2971C110.127 57.3062 110.46 57.2333 110.747 57.0784C111.034 56.9189 111.278 56.7047 111.479 56.4358C111.684 56.1669 111.845 55.8684 111.964 55.5403C112.087 55.2122 112.169 54.8863 112.21 54.5627L112.224 54.4055C112.256 54.1184 112.256 53.8199 112.224 53.51C112.196 53.1956 112.123 52.9039 112.005 52.635C111.891 52.3616 111.722 52.1405 111.499 51.9719C111.276 51.7987 110.986 51.7076 110.631 51.6985C110.253 51.6848 109.918 51.76 109.626 51.9241C109.339 52.0836 109.095 52.3 108.895 52.5735C108.694 52.8469 108.532 53.15 108.409 53.4827C108.291 53.8108 108.211 54.1366 108.17 54.4602ZM119.088 56.4153L120.059 50.7961H121.303L120.018 58.1926H118.835L119.088 56.4153ZM119.553 54.925L120.059 54.9045C119.999 55.3694 119.894 55.8114 119.744 56.2307C119.594 56.6454 119.389 57.0146 119.129 57.3381C118.874 57.6571 118.555 57.9078 118.172 58.0901C117.794 58.2678 117.345 58.3499 116.825 58.3362C116.42 58.3225 116.08 58.2405 115.807 58.0901C115.538 57.9397 115.326 57.7369 115.171 57.4817C115.016 57.2265 114.913 56.9348 114.863 56.6067C114.813 56.2786 114.806 55.9322 114.843 55.5676L115.643 50.7961H116.88L116.08 55.5881C116.062 55.7887 116.059 55.9869 116.073 56.1829C116.087 56.3743 116.128 56.5497 116.196 56.7092C116.265 56.8687 116.369 56.9986 116.511 57.0989C116.656 57.1946 116.848 57.247 117.085 57.2561C117.577 57.2743 117.994 57.1832 118.336 56.9827C118.678 56.7776 118.949 56.495 119.149 56.135C119.35 55.775 119.484 55.3717 119.553 54.925ZM124.222 52.0129L123.149 58.1926H121.912L123.197 50.7961H124.4L124.222 52.0129ZM126.622 50.7346L126.506 51.9241C126.41 51.9058 126.312 51.8899 126.212 51.8762C126.116 51.8625 126.02 51.8557 125.925 51.8557C125.628 51.8512 125.362 51.8967 125.125 51.9924C124.892 52.0836 124.685 52.2135 124.503 52.3821C124.325 52.5507 124.172 52.7489 124.045 52.9768C123.922 53.2047 123.824 53.4508 123.751 53.7151L123.361 53.9202C123.411 53.551 123.493 53.1728 123.607 52.7854C123.726 52.398 123.887 52.0403 124.093 51.7122C124.302 51.384 124.564 51.1197 124.879 50.9192C125.198 50.7187 125.58 50.6252 126.027 50.6389C126.127 50.6389 126.225 50.648 126.321 50.6663C126.421 50.6845 126.522 50.7073 126.622 50.7346ZM132.345 52.0129L131.272 58.1926H130.035L131.32 50.7961H132.523L132.345 52.0129ZM134.745 50.7346L134.628 51.9241C134.533 51.9058 134.435 51.8899 134.334 51.8762C134.239 51.8625 134.143 51.8557 134.047 51.8557C133.751 51.8512 133.484 51.8967 133.247 51.9924C133.015 52.0836 132.808 52.2135 132.625 52.3821C132.448 52.5507 132.295 52.7489 132.167 52.9768C132.044 53.2047 131.946 53.4508 131.873 53.7151L131.484 53.9202C131.534 53.551 131.616 53.1728 131.73 52.7854C131.848 52.398 132.01 52.0403 132.215 51.7122C132.425 51.384 132.687 51.1197 133.001 50.9192C133.32 50.7187 133.703 50.6252 134.15 50.6389C134.25 50.6389 134.348 50.648 134.444 50.6663C134.544 50.6845 134.644 50.7073 134.745 50.7346ZM137.302 50.7961L136.017 58.1926H134.78L136.065 50.7961H137.302ZM136.311 48.8547C136.311 48.6405 136.377 48.4628 136.509 48.3215C136.646 48.1757 136.821 48.1005 137.035 48.0959C137.25 48.0914 137.425 48.1575 137.562 48.2942C137.703 48.4309 137.771 48.6041 137.767 48.8137C137.767 49.0234 137.696 49.1988 137.555 49.3401C137.418 49.4768 137.245 49.5474 137.035 49.552C136.826 49.5566 136.653 49.495 136.516 49.3674C136.379 49.2353 136.311 49.0644 136.311 48.8547ZM143.947 50.7961H145.082L143.845 58.0286C143.758 58.6438 143.56 59.1861 143.25 59.6555C142.945 60.1249 142.544 60.4895 142.047 60.7493C141.555 61.009 140.992 61.1321 140.359 61.1184C140.026 61.1093 139.7 61.0523 139.381 60.9475C139.062 60.8427 138.768 60.6946 138.499 60.5032C138.23 60.3118 138.005 60.0771 137.822 59.7991L138.533 59.0608C138.748 59.3661 139 59.6077 139.292 59.7854C139.588 59.9677 139.926 60.0657 140.304 60.0793C140.719 60.0885 141.085 60.011 141.404 59.8469C141.728 59.6874 141.99 59.4573 142.191 59.1565C142.396 58.8557 142.53 58.5025 142.594 58.0969L143.565 52.3616L143.947 50.7961ZM138.362 54.6311L138.383 54.4807C138.438 54.025 138.545 53.5693 138.704 53.1135C138.868 52.6578 139.087 52.2431 139.36 51.8694C139.634 51.4911 139.969 51.1926 140.365 50.9739C140.762 50.7506 141.224 50.6435 141.753 50.6526C142.232 50.6663 142.63 50.7779 142.949 50.9875C143.268 51.1972 143.519 51.4752 143.701 51.8215C143.888 52.1633 144.013 52.5393 144.077 52.9495C144.146 53.3596 144.166 53.7721 144.139 54.1868L144.064 54.8157C143.986 55.2577 143.859 55.6907 143.681 56.1145C143.503 56.5383 143.273 56.9211 142.99 57.2629C142.708 57.6002 142.371 57.8668 141.979 58.0627C141.591 58.2587 141.149 58.3499 140.652 58.3362C140.165 58.318 139.762 58.1926 139.442 57.9602C139.128 57.7278 138.884 57.4293 138.711 57.0647C138.538 56.6956 138.426 56.2991 138.376 55.8752C138.326 55.4469 138.321 55.0321 138.362 54.6311ZM139.627 54.4739L139.607 54.6243C139.575 54.8977 139.566 55.1848 139.579 55.4856C139.593 55.7864 139.645 56.0712 139.736 56.3401C139.828 56.6044 139.973 56.8232 140.174 56.9963C140.379 57.165 140.657 57.2538 141.008 57.2629C141.382 57.2766 141.728 57.1946 142.047 57.0168C142.366 56.8391 142.639 56.6021 142.867 56.3059C143.095 56.0097 143.259 55.6884 143.359 55.342L143.626 53.6809C143.64 53.4303 143.61 53.1887 143.537 52.9563C143.464 52.7239 143.355 52.5165 143.209 52.3342C143.068 52.1519 142.895 52.0061 142.69 51.8967C142.484 51.7874 142.252 51.7304 141.992 51.7258C141.609 51.7122 141.279 51.7874 141.001 51.9514C140.723 52.1109 140.488 52.3274 140.297 52.6008C140.11 52.8743 139.962 53.175 139.853 53.5032C139.743 53.8313 139.668 54.1549 139.627 54.4739ZM148.747 47.6926L146.922 58.1926H145.685L147.51 47.6926H148.747ZM147.346 54.2141L146.84 54.2004C146.904 53.7584 147.02 53.3254 147.188 52.9016C147.362 52.4732 147.587 52.0881 147.865 51.7463C148.148 51.4045 148.483 51.1357 148.87 50.9397C149.262 50.7392 149.709 50.6458 150.21 50.6594C150.606 50.6685 150.937 50.746 151.201 50.8918C151.47 51.0331 151.68 51.2268 151.83 51.4729C151.98 51.719 152.081 52.0038 152.131 52.3274C152.181 52.6464 152.186 52.9859 152.144 53.3459L151.338 58.1926H150.094L150.914 53.3254C150.946 53.0292 150.935 52.7626 150.88 52.5256C150.83 52.2841 150.716 52.0927 150.538 51.9514C150.365 51.8056 150.114 51.7281 149.786 51.719C149.44 51.7099 149.128 51.776 148.85 51.9172C148.572 52.0585 148.328 52.2522 148.118 52.4983C147.913 52.7398 147.744 53.011 147.612 53.3118C147.485 53.608 147.396 53.9088 147.346 54.2141ZM157.498 50.7961L157.327 51.7668H153.437L153.608 50.7961H157.498ZM155.235 48.9983H156.466L155.215 56.3743C155.201 56.5338 155.206 56.6773 155.228 56.8049C155.251 56.9325 155.306 57.0351 155.392 57.1125C155.479 57.1855 155.611 57.2242 155.789 57.2288C155.889 57.2288 155.987 57.2219 156.083 57.2083C156.183 57.19 156.283 57.1741 156.384 57.1604L156.295 58.1995C156.149 58.2405 155.998 58.2701 155.844 58.2883C155.693 58.3111 155.543 58.3202 155.392 58.3157C155.014 58.3111 154.718 58.2154 154.504 58.0286C154.29 57.8417 154.144 57.6002 154.066 57.304C153.989 57.0077 153.966 56.691 153.998 56.3538L155.235 48.9983Z" fill="black"/>
<path d="M32.74 22L32.5446 23.4453C32.2842 25.2552 31.8025 27 31.0993 28.6797C30.3962 30.3594 29.4717 31.8633 28.3259 33.1914C27.1801 34.5065 25.8194 35.5482 24.2439 36.3164C22.6683 37.0716 20.878 37.4297 18.8728 37.3906C16.9587 37.3516 15.3441 36.9349 14.029 36.1406C12.7139 35.3333 11.6723 34.2656 10.904 32.9375C10.1488 31.6094 9.641 30.1315 9.38058 28.5039C9.13319 26.8633 9.11366 25.2031 9.32199 23.5234L9.5173 22.0586C9.77772 20.2617 10.266 18.5299 10.9821 16.8633C11.6983 15.1836 12.6293 13.6862 13.7751 12.3711C14.9209 11.043 16.2816 10.0013 17.8571 9.24609C19.4457 8.49089 21.2295 8.13281 23.2087 8.17188C25.1228 8.19792 26.7374 8.61458 28.0525 9.42188C29.3676 10.2161 30.4027 11.2773 31.1579 12.6055C31.9131 13.9336 32.4144 15.4115 32.6618 17.0391C32.9223 18.6667 32.9483 20.3203 32.74 22ZM27.2517 23.5234L27.447 22C27.5642 21.0625 27.6228 20.0599 27.6228 18.9922C27.6228 17.9115 27.4861 16.8893 27.2126 15.9258C26.9392 14.9492 26.4639 14.1484 25.7868 13.5234C25.1098 12.8854 24.1527 12.5404 22.9157 12.4883C21.6137 12.4362 20.4874 12.6966 19.5368 13.2695C18.5863 13.8294 17.7855 14.5911 17.1345 15.5547C16.4965 16.5052 15.9887 17.5469 15.6111 18.6797C15.2465 19.8125 14.9861 20.9258 14.8298 22.0195L14.6345 23.543C14.5173 24.4544 14.4587 25.4505 14.4587 26.5312C14.4587 27.612 14.5954 28.6471 14.8689 29.6367C15.1423 30.6133 15.6176 31.4271 16.2946 32.0781C16.9717 32.7161 17.9288 33.0547 19.1657 33.0938C20.4808 33.1458 21.6137 32.8854 22.5642 32.3125C23.5147 31.7396 24.309 30.9779 24.947 30.0273C25.585 29.0638 26.0928 28.0156 26.4704 26.8828C26.848 25.737 27.1084 24.6172 27.2517 23.5234ZM57.3884 14.2461L53.4236 37H48.5407L41.7243 21.707L39.0681 37H34.0095L37.9548 14.2461H42.8376L49.6736 29.5391L52.3298 14.2461H57.3884ZM74.2634 32.9375L73.5407 37H60.8454L61.5681 32.9375H74.2634ZM66.529 14.2461L62.5837 37H57.5251L61.4704 14.2461H66.529ZM74.322 23.2109L73.5993 27.2734H62.5446L63.2478 23.2109H74.322ZM77.4861 14.2461L76.7829 18.3281H64.0876L64.8103 14.2461H77.4861ZM87.6423 31.2188L97.9939 8.5625H103.97L89.7712 37H85.7673L87.6423 31.2188ZM84.7907 8.5625L88.1111 31.6875L88.2087 37H84.4196L79.1657 8.5625H84.7907ZM122.31 24.9883L122.193 26.0234C122.011 27.5729 121.607 29.0378 120.982 30.418C120.37 31.7982 119.556 33.0156 118.541 34.0703C117.538 35.112 116.353 35.9258 114.986 36.5117C113.632 37.0846 112.128 37.3516 110.474 37.3125C108.899 37.2865 107.538 36.974 106.392 36.375C105.246 35.763 104.315 34.9427 103.599 33.9141C102.883 32.8724 102.382 31.694 102.095 30.3789C101.822 29.0508 101.757 27.6641 101.9 26.2188L102.017 25.1641C102.2 23.6016 102.603 22.1367 103.228 20.7695C103.866 19.4023 104.687 18.1979 105.689 17.1562C106.705 16.1146 107.89 15.3073 109.244 14.7344C110.611 14.1615 112.115 13.8945 113.756 13.9336C115.331 13.9596 116.685 14.2786 117.818 14.8906C118.964 15.4896 119.888 16.3034 120.592 17.332C121.308 18.3477 121.809 19.5195 122.095 20.8477C122.382 22.1628 122.454 23.543 122.31 24.9883ZM117.134 26.0039L117.271 24.9492C117.336 24.207 117.349 23.4388 117.31 22.6445C117.271 21.8372 117.128 21.0885 116.881 20.3984C116.633 19.7083 116.236 19.1419 115.689 18.6992C115.142 18.2565 114.4 18.0156 113.463 17.9766C112.447 17.9375 111.562 18.1263 110.806 18.543C110.064 18.9466 109.433 19.5 108.912 20.2031C108.404 20.8932 107.994 21.668 107.681 22.5273C107.382 23.3867 107.18 24.2461 107.076 25.1055L106.939 26.1797C106.861 26.9219 106.842 27.7031 106.881 28.5234C106.92 29.3307 107.063 30.0924 107.31 30.8086C107.558 31.5117 107.955 32.0911 108.502 32.5469C109.062 33.0026 109.817 33.25 110.767 33.2891C111.783 33.3281 112.662 33.1393 113.404 32.7227C114.159 32.293 114.791 31.7201 115.299 31.0039C115.819 30.2878 116.223 29.4935 116.509 28.6211C116.809 27.7487 117.017 26.8763 117.134 26.0039ZM138.092 14.2461L134.146 37H129.068L133.033 14.2461H138.092ZM145.377 14.2461L144.654 18.3281H125.162L125.904 14.2461H145.377ZM160.865 32.9375L160.142 37H147.447L148.17 32.9375H160.865ZM153.131 14.2461L149.185 37H144.127L148.072 14.2461H153.131ZM160.924 23.2109L160.201 27.2734H149.146L149.849 23.2109H160.924ZM164.088 14.2461L163.384 18.3281H150.689L151.412 14.2461H164.088Z" fill="#027314"/>
</svg>
